<?xml version="1.0" encoding="utf-8"?>
<!-- Generator: Adobe Illustrator 19.2.0, SVG Export Plug-In . SVG Version: 6.00 Build 0)  -->
<svg version="1.1" id="Layer_1" xmlns="http://www.w3.org/2000/svg" xmlns:xlink="http://www.w3.org/1999/xlink" x="0px" y="0px"
	 viewBox="0 0 32 32" style="enable-background:new 0 0 32 32;" xml:space="preserve">
<style type="text/css">
	.st0{fill:#E8DFE0;}
	.st1{fill-rule:evenodd;clip-rule:evenodd;fill:#E8DFE0;}
</style>
<path class="st0" d="M32,7.1h-1.3c-0.5,0-1.1,0.7-1.1,1.1v15.7c0,0.4,0.7,1,1.1,1H32v3.7H20.5v-3.7h2.4V8.4h-0.1l-5.6,20.3h-4.3
	L7.3,8.4H7.2v16.5h2.4v3.7H0v-3.7h1.2c0.5,0,1.2-0.6,1.2-1V8.2c0-0.4-0.7-1.1-1.2-1.1H0V3.3h12L15.9,18h0.1l4-14.7h12V7.1z"/>
</svg>
